<svg viewBox="0 0 24 24" xmlns="http://www.w3.org/2000/svg" fill="none" stroke="#000000" stroke-width="1.7" stroke-linecap="round" stroke-linejoin="round">
  <circle cx="12" cy="12" r="2.1" fill="#000000" stroke="none"/>
  <path d="M12 10c-.4-3 .4-5.2 1.8-6.2 1.6-1.1 3.7 .3 3.2 2.2-.5 1.8-2.7 3-5 4Z" fill="#000000" stroke="none"/>
  <path d="M14 12c3-.4 5.2 .4 6.2 1.8 1.1 1.6-.3 3.7-2.2 3.2-1.8-.5-3-2.7-4-5Z" fill="#000000" stroke="none"/>
  <path d="M10 14c.4 3-.4 5.2-1.8 6.2-1.6 1.1-3.7-.3-3.2-2.2 .5-1.8 2.7-3 5-4Z" fill="#000000" stroke="none"/>
  <path d="M10 12c-3 .4-5.2-.4-6.2-1.8C2.7 8.6 4.1 6.5 6 7c1.8 .5 3 2.7 4 5Z" fill="#000000" stroke="none"/>
</svg>
