<svg viewBox="0 0 640 300" xmlns="http://www.w3.org/2000/svg">
  <defs>
    <linearGradient id="hbody" x1="0" y1="0" x2="0" y2="1">
      <stop offset="0"   stop-color="#9aa0a8"/>
      <stop offset="0.18" stop-color="#e9edf2"/>
      <stop offset="0.5"  stop-color="#fbfdff"/>
      <stop offset="0.82" stop-color="#e9edf2"/>
      <stop offset="1"   stop-color="#9aa0a8"/>
    </linearGradient>
    <linearGradient id="hglass" x1="0" y1="0" x2="1" y2="0">
      <stop offset="0"   stop-color="#3b4252"/>
      <stop offset="0.5" stop-color="#262b36"/>
      <stop offset="1"   stop-color="#3b4252"/>
    </linearGradient>
    <linearGradient id="hroof" x1="0" y1="0" x2="0" y2="1">
      <stop offset="0"   stop-color="#7e8590"/>
      <stop offset="0.5" stop-color="#c7cdd6"/>
      <stop offset="1"   stop-color="#7e8590"/>
    </linearGradient>
  </defs>
  <g transform="translate(0,300) rotate(-90)">
    <ellipse cx="153" cy="326" rx="120" ry="300" fill="#000000" opacity="0.16"/>
    <path d="M150 18 C95 18 64 54 56 120 C49 178 46 250 46 330 C46 430 50 520 60 568 C68 606 110 624 150 624 C190 624 232 606 240 568 C250 520 254 430 254 330 C254 250 251 178 244 120 C236 54 205 18 150 18 Z"
          fill="url(#hbody)" stroke="#7c828c" stroke-width="1.5"/>
    <path d="M48 232 C30 230 22 238 24 250 C26 260 40 258 50 252 Z" fill="#c2c8d0" stroke="#7c828c" stroke-width="1"/>
    <path d="M252 232 C270 230 278 238 276 250 C274 260 260 258 250 252 Z" fill="#c2c8d0" stroke="#7c828c" stroke-width="1"/>
    <path d="M104 150 C130 140 170 140 196 150 L186 196 C160 188 140 188 114 196 Z" fill="url(#hglass)"/>
    <rect x="100" y="206" width="100" height="190" rx="26" fill="url(#hroof)"/>
    <rect x="110" y="216" width="80" height="168" rx="20" fill="url(#hglass)"/>
    <path d="M114 410 C140 402 160 402 186 410 L196 452 C170 442 130 442 104 452 Z" fill="url(#hglass)"/>
    <path d="M150 470 L150 560" stroke="#aeb4bd" stroke-width="1.4" opacity="0.6"/>
    <path d="M70 540 C110 556 190 556 230 540" stroke="#aeb4bd" stroke-width="1.4" fill="none" opacity="0.6"/>
  </g>
</svg>
